# xmcd CD database file
#
# Track frame offsets:
#	150
#	12193
#	26930
#	44066
#	61778
#
# Disc length: 975 seconds
#
# Revision: 4
# Processed by: cddbd v1.5PL3 Copyright (c) Steve Scherf et al.
# Submitted via: CDex 1.50Beta7
#
DISCID=3d03cd05
DTITLE=空気公団 - ここだよ
DYEAR=1999
DGENRE=Pop
TTITLE0=田中さん、愛善通りを行く
TTITLE1=退屈
TTITLE2=ここだよ
TTITLE3=かくれてばっかり
TTITLE4=気持ち
EXTD=YEAR: 1999
EXTT0=
EXTT1=
EXTT2=
EXTT3=
EXTT4=
PLAYORDER=
